<svg xmlns="http://www.w3.org/2000/svg" viewBox="0 0 1200 720" fill="none" aria-hidden="true">
  <!-- Still de cinema no creme Plvria: luz de janela, uma nota de serviço e um selo. Sem foto de stock e sem neon. -->
  <rect width="1200" height="720" fill="#f3efe6"/>
  <ellipse cx="860" cy="40" rx="520" ry="240" fill="#f7f1e6"/>
  <ellipse cx="240" cy="0" rx="380" ry="200" fill="#eadccb" opacity="0.9"/>
  <ellipse cx="690" cy="120" rx="280" ry="110" fill="#b5441f" opacity="0.07"/>
  <path d="M0 210 C 220 150, 460 250, 720 180 S 1040 120, 1200 190" stroke="#d2c8b6" stroke-width="1.2"/>
  <path d="M60 96 H96 M60 96 V132" stroke="#1b1916" stroke-width="1.2" opacity="0.4"/>
  <path d="M1140 96 H1104 M1140 96 V132" stroke="#1b1916" stroke-width="1.2" opacity="0.4"/>
  <g opacity="0.9">
    <rect x="78" y="168" width="300" height="196" rx="18" fill="#243d32" transform="rotate(-8 228 266)"/>
    <rect x="92" y="168" width="92" height="22" rx="6" fill="#2f5344" transform="rotate(-8 228 266)"/>
  </g>
  <g filter="url(#paper-shadow)">
    <g transform="rotate(2.2 640 280)">
      <rect x="300" y="78" width="620" height="392" rx="4" fill="#fffaf3" stroke="#d2c8b6"/>
      <path d="M842 78 H920 V156 L842 78Z" fill="#e7dfd0"/>
      <path d="M842 78 L920 156" stroke="#d2c8b6" stroke-width="1"/>
      <rect x="336" y="112" width="72" height="8" rx="4" fill="#b5441f"/>
      <rect x="420" y="112" width="46" height="8" rx="4" fill="#c4a574"/>
      <rect x="336" y="146" width="250" height="14" rx="3" fill="#1b1916" opacity="0.88"/>
      <rect x="336" y="178" width="420" height="7" rx="3" fill="#4f4a43" opacity="0.22"/>
      <rect x="336" y="196" width="360" height="7" rx="3" fill="#4f4a43" opacity="0.16"/>
      <rect x="336" y="214" width="390" height="7" rx="3" fill="#4f4a43" opacity="0.12"/>
      <rect x="336" y="256" width="150" height="64" rx="8" fill="#f3efe6" stroke="#e7dfd0"/>
      <rect x="352" y="272" width="70" height="6" rx="3" fill="#243d32" opacity="0.55"/>
      <rect x="352" y="288" width="108" height="8" rx="3" fill="#1b1916" opacity="0.75"/>
      <rect x="506" y="256" width="150" height="64" rx="8" fill="#f3efe6" stroke="#e7dfd0"/>
      <rect x="522" y="272" width="64" height="6" rx="3" fill="#243d32" opacity="0.55"/>
      <rect x="522" y="288" width="96" height="8" rx="3" fill="#1b1916" opacity="0.75"/>
      <circle cx="792" cy="360" r="52" fill="none" stroke="#b5441f" stroke-width="1.6"/>
      <circle cx="792" cy="360" r="40" fill="none" stroke="#b5441f" stroke-width="0.6" opacity="0.7"/>
      <path d="M768 360 H816" stroke="#b5441f" stroke-width="1"/>
      <path d="M792 336 V384" stroke="#b5441f" stroke-width="1"/>
    </g>
  </g>
  <g transform="rotate(-6 210 430)">
    <rect x="118" y="392" width="168" height="46" rx="23" fill="#fffaf3" stroke="#d2c8b6"/>
    <circle cx="146" cy="415" r="5" fill="#b5441f"/>
    <rect x="162" y="411" width="96" height="8" rx="4" fill="#1b1916" opacity="0.8"/>
  </g>
  <circle cx="1040" cy="250" r="3.5" fill="#b5441f" opacity="0.8"/>
  <circle cx="180" cy="140" r="2.5" fill="#1b1916" opacity="0.35"/>
  <circle cx="980" cy="420" r="2" fill="#243d32" opacity="0.45"/>
  <defs>
    <filter id="paper-shadow" x="-10%" y="-10%" width="120%" height="130%">
      <feDropShadow dx="0" dy="18" stdDeviation="16" flood-color="#1b1916" flood-opacity="0.08"/>
    </filter>
  </defs>
</svg>
